<svg width="110" height="88" viewBox="0 0 110 88" fill="none" xmlns="http://www.w3.org/2000/svg">
<g opacity="0.1" clip-path="url(#clip0_16_22)">
<path d="M83.875 33H57.75V42.625C57.75 49.4484 52.1984 55 45.375 55C38.5516 55 33 49.4484 33 42.625V21.725L21.8453 28.4281C18.5281 30.4047 16.5 33.9969 16.5 37.8469V45.9766L2.75001 53.9172C0.120326 55.4297 -0.790611 58.7984 0.739076 61.4281L14.4891 85.25C16.0016 87.8797 19.3703 88.7734 22 87.2609L39.7719 77H63.25C69.3172 77 74.25 72.0672 74.25 66H77C80.0422 66 82.5 63.5422 82.5 60.5V49.5H83.875C86.161 49.5 88 47.6609 88 45.375V37.125C88 34.8391 86.161 33 83.875 33ZM109.261 26.5719L95.511 2.75001C93.9985 0.120317 90.6297 -0.773432 88 0.739068L70.2281 11H52.6625C50.6 11 48.5891 11.5844 46.8359 12.6672L41.0781 16.2594C39.4625 17.2563 38.5 19.0266 38.5 20.9172V42.625C38.5 46.4234 41.5766 49.5 45.375 49.5C49.1734 49.5 52.25 46.4234 52.25 42.625V27.5H83.875C89.186 27.5 93.5 31.8141 93.5 37.125V42.0234L107.25 34.0828C109.88 32.5531 110.773 29.2016 109.261 26.5719Z" fill="#555555"/>
</g>
<defs>
<clipPath id="clip0_16_22">
<rect width="110" height="88" fill="white"/>
</clipPath>
</defs>
</svg>
