<svg width="100" height="100" viewBox="0 0 100 100" fill="none" xmlns="http://www.w3.org/2000/svg">
<path d="M87.5 81.25H12.5V47.9167L50 12.5L87.5 47.9167V81.25Z" fill="#E8EAF6"/>
<path d="M81.25 43.75L70.8333 33.3333V18.75H81.25V43.75ZM12.5 81.25H87.5V91.6667H12.5V81.25Z" fill="#C5CAE9"/>
<path d="M50 8.95825L8.33331 47.7082L12.5 52.2916L50 17.4999L87.5 52.2916L91.6667 47.7082L50 8.95825Z" fill="#B71C1C"/>
<path d="M37.5 58.3333H62.5V91.6666H37.5V58.3333Z" fill="#D84315"/>
<path d="M43.75 35.4167H56.25V47.9167H43.75V35.4167Z" fill="#01579B"/>
<path d="M57.2917 73.9583C56.6667 73.9583 56.25 74.3749 56.25 74.9999V79.1666C56.25 79.7916 56.6667 80.2083 57.2917 80.2083C57.9167 80.2083 58.3333 79.7916 58.3333 79.1666V74.9999C58.3333 74.3749 57.9167 73.9583 57.2917 73.9583Z" fill="#FF8A65"/>
</svg>
