<svg width="100" height="100" viewBox="0 0 100 100" fill="none" xmlns="http://www.w3.org/2000/svg">
<path d="M83.3334 33.3335H16.6667C13.2149 33.3335 10.4167 36.1317 10.4167 39.5835V81.2502C10.4167 84.7019 13.2149 87.5002 16.6667 87.5002H83.3334C86.7851 87.5002 89.5834 84.7019 89.5834 81.2502V39.5835C89.5834 36.1317 86.7851 33.3335 83.3334 33.3335Z" fill="#2F88FF" stroke="black" stroke-width="1.83333" stroke-linejoin="round"/>
<path d="M39.5834 16.6668H60.4167V8.3335H39.5834V16.6668ZM62.5 18.7502V33.3335H70.8334V18.7502H62.5ZM37.5 33.3335V18.7502H29.1667V33.3335H37.5ZM60.4167 16.6668C61.5673 16.6668 62.5 17.5996 62.5 18.7502H70.8334C70.8334 12.9972 66.1696 8.3335 60.4167 8.3335V16.6668ZM39.5834 8.3335C33.8304 8.3335 29.1667 12.9972 29.1667 18.7502H37.5C37.5 17.5996 38.4327 16.6668 39.5834 16.6668V8.3335Z" fill="black"/>
<path d="M37.5 60.417H62.5" stroke="white" stroke-width="1.83333" stroke-linecap="round" stroke-linejoin="round"/>
<path d="M50 47.917V72.917" stroke="white" stroke-width="1.83333" stroke-linecap="round" stroke-linejoin="round"/>
</svg>
