<svg width="100" height="100" viewBox="0 0 100 100" fill="none" xmlns="http://www.w3.org/2000/svg">
<path d="M50.7812 69.2188C30.1563 69.2188 12.9688 62.8125 9.0625 54.375C16.25 76.4062 11.875 96.875 50.7812 96.875C89.6875 96.875 85.3125 76.4062 92.5 54.375C88.5938 62.8125 71.4062 69.2188 50.7812 69.2188Z" fill="#3E4347"/>
<path d="M31.5625 32.0313C53.5938 25.9375 104.219 35.1563 93.125 56.0938C99.2188 62.9688 101.406 70.3125 72.3438 69.8438C27.6563 80.3125 -9.21872 58.5938 7.03128 42.1875C3.12503 34.2188 11.7188 30.1563 31.5625 32.0313Z" fill="#6F7980"/>
<path d="M50.7813 68.2812C70.3125 68.2812 86.5625 62.1875 90.3125 54.2188C90.625 53.4375 90.7813 52.6562 91.0938 51.875C91.0938 51.4062 91.25 51.0938 91.25 50.625C91.25 40.9375 73.125 33.125 50.9375 33.125C28.75 33.125 10.625 40.9375 10.625 50.625C10.625 51.0938 10.625 51.4062 10.7812 51.875C10.9375 52.6562 11.25 53.4375 11.5625 54.2188C15 62.1875 31.25 68.2812 50.7813 68.2812Z" fill="#3E4347"/>
<path d="M50.7812 68.2813C70.3125 68.2813 86.5625 62.1875 90.3125 54.2188C90.3125 53.9063 90.4688 53.75 90.4688 53.4375C87.1875 45.1563 70.625 38.9062 50.625 38.9062C30.625 38.9062 14.0625 45.1563 10.7812 53.4375C10.9375 53.75 10.9375 53.9063 10.9375 54.2188C15 62.1875 31.25 68.2813 50.7812 68.2813Z" fill="#FBBF67"/>
<path d="M56.2499 47.5C48.4374 47.3437 38.9062 53.5937 32.4999 53.125C21.8749 52.3437 32.8124 57.5 40.3124 57.5C45.3124 57.5 48.7499 52.9687 51.4062 51.0937C55.1562 48.75 64.3749 47.6562 56.2499 47.5Z" fill="#D33B23"/>
<path d="M33.125 42.3435C31.0937 36.7185 19.375 45.9373 29.375 47.9685C30.9375 48.281 34.8437 47.3435 33.125 42.3435ZM55.7812 59.9998C53.2812 53.1248 38.75 64.531 51.25 66.8748C53.125 67.1873 57.9687 66.0935 55.7812 59.9998ZM58.4375 40.3123C56.0937 34.6873 41.5625 43.906 53.9062 45.9373C55.625 46.0935 60.4687 45.156 58.4375 40.3123ZM82.3437 46.406C81.4062 40.3123 62.8125 43.7498 75.625 50.156C77.5 51.0935 83.125 51.8748 82.3437 46.406Z" fill="#FF8736"/>
<path d="M23.5938 51.8752C21.8751 49.5315 19.3751 46.4065 18.4376 47.969C17.0313 50.1565 16.5626 54.5315 17.6563 54.6877C25.4688 56.2502 24.8438 53.7502 23.5938 51.8752ZM66.5626 47.5002C63.7501 48.7502 62.0313 47.8127 60.7813 49.6877C57.8126 53.9065 67.9688 55.3127 69.8438 52.8127C71.2501 51.094 68.4376 46.719 66.5626 47.5002ZM68.9063 57.969C66.8751 57.0315 67.3438 60.1565 64.2188 57.6565C62.0313 55.9377 57.3438 60.3127 60.4688 63.2815C63.9063 66.5627 64.8438 63.4377 66.2501 63.7502C69.2188 64.219 74.3751 60.3127 68.9063 57.969ZM34.5313 58.9065C32.6563 57.0315 29.6876 62.344 30.7813 63.7502C33.1251 66.8752 41.5626 66.2502 43.7501 63.9065C46.5626 61.094 39.0626 63.2815 34.5313 58.9065Z" fill="#89664C"/>
<path d="M27.3437 57.3438C27.3437 57.3438 27.5 59.2188 27.8125 60C25.7812 59.2188 25.7812 55.625 25.7812 55.625C25.7812 55.625 24.375 56.4063 24.5312 57.8125C22.3437 55.9375 20.4688 56.875 20.4688 56.875C20.4688 56.875 23.2812 58.4375 23.75 59.5312C22.1875 59.6875 21.25 60.1563 20.625 61.4063C20.625 61.4063 23.75 59.8438 26.0938 60.9375C25.1563 61.7188 25.625 63.5938 25.625 63.5938C29.375 59.6875 31.7187 63.125 33.4375 62.1875C32.0312 60.3125 30 60 30 60C29.2188 58.4375 27.3437 57.3438 27.3437 57.3438ZM44.2187 42.0313C42.3437 41.7188 40.4687 42.6563 40.4687 42.6563C40.4687 42.6563 42.1875 43.4375 42.9688 43.75C41.25 45.1563 38.125 43.2813 38.125 43.2813C38.125 43.2813 38.125 44.8438 39.375 45.4688C36.7188 46.4063 36.4062 48.5938 36.4062 48.5938C36.4062 48.5938 39.2187 47.0313 40.3125 47.1875C39.5312 48.5938 39.5312 49.6875 40.4687 50.7813C40.4687 50.7813 40.7812 47.3438 42.9688 45.9375C43.125 47.1875 45 47.6563 45 47.6563C43.5937 42.5 47.8125 42.1875 47.8125 40.3125C45.625 40.3125 44.2187 42.0313 44.2187 42.0313ZM80.625 56.0938C81.4062 55.3125 84.6875 54.8438 84.6875 54.8438C84.6875 54.8438 83.2813 53.2812 80.4688 54.0625C81.0938 52.8125 80.1562 51.5625 80.1562 51.5625C80.1562 51.5625 78.75 54.8438 76.5625 54.8438C77.1875 54.0625 77.9688 52.5 77.9688 52.5C77.9688 52.5 75.7812 52.9688 74.5312 54.375C74.5312 54.375 72.5 53.75 70.625 55C71.7187 56.5625 75.3125 54.2188 77.1875 59.2188C77.1875 59.2188 78.2812 57.6563 77.8125 56.5625C80.3125 56.4063 82.6563 59.0625 82.6563 59.0625C82.6563 57.6563 82.0312 56.875 80.625 56.0938Z" fill="#699635"/>
<path opacity="0.6" d="M52.0312 17.8125C46.25 11.875 50.1562 3.125 50.1562 3.125C50.1562 3.125 37.9687 14.6875 45.625 22.6562C54.5312 31.875 50.1562 37.5 50.1562 37.5C50.1562 37.5 61.0937 27.1875 52.0312 17.8125ZM34.8437 23.125C30.4687 18.9062 33.4375 12.5 33.4375 12.5C33.4375 12.5 24.375 20.9375 30.1562 26.7188C36.875 33.4375 33.4375 37.5 33.4375 37.5C33.4375 37.5 41.5625 30 34.8437 23.125ZM69.2187 23.125C64.8437 18.9062 67.8125 12.5 67.8125 12.5C67.8125 12.5 58.75 20.9375 64.5312 26.7188C71.25 33.4375 67.8125 37.5 67.8125 37.5C67.8125 37.5 75.9375 30 69.2187 23.125Z" fill="#A6AEB0"/>
</svg>
