<svg width="100" height="100" viewBox="0 0 100 100" fill="none" xmlns="http://www.w3.org/2000/svg">
<path d="M80.9042 27.829C85.1958 32.3873 87.5 37.4998 87.5 45.7873C87.5 60.3707 77.2625 73.4415 62.375 79.904L58.6541 74.1623C72.55 66.6457 75.2666 56.8915 76.35 50.7415C74.1125 51.8998 71.1833 52.304 68.3125 52.0373C60.7958 51.3415 54.8708 45.1707 54.8708 37.4998C54.8708 33.6321 56.4073 29.9228 59.1422 27.1879C61.8771 24.453 65.5864 22.9165 69.4542 22.9165C73.925 22.9165 78.2 24.9582 80.9042 27.829ZM39.2375 27.829C43.5291 32.3873 45.8333 37.4998 45.8333 45.7873C45.8333 60.3707 35.5958 73.4415 20.7083 79.904L16.9875 74.1623C30.8833 66.6457 33.6 56.8915 34.6833 50.7415C32.4458 51.8998 29.5166 52.304 26.6458 52.0373C19.1291 51.3415 13.2083 45.1707 13.2083 37.4998C13.2083 33.6321 14.7448 29.9228 17.4797 27.1879C20.2146 24.453 23.9239 22.9165 27.7916 22.9165C32.2625 22.9165 36.5375 24.9582 39.2416 27.829H39.2375Z" fill="white"/>
</svg>
